<svg xmlns="http://www.w3.org/2000/svg" xmlns:xlink="http://www.w3.org/1999/xlink" version="1.1" data-diagram-type="DESCRIPTION" style="width:663px;height:690px;background:#FFFFFF;" width="663px" height="690px" viewBox="0 0 663 690" zoomAndPan="magnify" preserveAspectRatio="none" contentStyleType="text/css"><?plantuml 1.2026.8beta1?><defs/><g font-family="sans-serif" lengthAdjust="spacing"><!--cluster System--><g class="cluster" data-qualified-name="System" id="ent0002" data-source-line="3"><rect x="260.33" y="7" width="216.79" height="669" fill="none" style="stroke:#181818;stroke-width:1;" rx="2.5" ry="2.5"/><text x="339.566" y="21.995" fill="#000" font-size="14" textLength="58.317" font-weight="700">System</text></g><!--entity UC1--><g class="entity" data-qualified-name="System.UC1" id="ent0003" data-source-line="5"><ellipse cx="368.728" cy="254" rx="92.398" ry="32.46" fill="#F1F1F1" style="stroke:#181818;stroke-width:0.5;"/><text x="306.859" y="245.531" fill="#000" font-size="14" textLength="123.737">Membuat laporan</text><text x="294.548" y="261.828" fill="#000" font-size="14" textLength="148.36">pencemaran (konsep</text><text x="337.669" y="278.125" fill="#000" font-size="14" textLength="62.118">ReportIt)</text></g><!--entity UC2--><g class="entity" data-qualified-name="System.UC2" id="ent0004" data-source-line="6"><ellipse cx="368.728" cy="66.001" rx="79.448" ry="24.291" fill="#F1F1F1" style="stroke:#181818;stroke-width:0.5;"/><text x="310.213" y="65.097" fill="#000" font-size="14" textLength="117.031">Mengambil bukti</text><text x="333.475" y="81.394" fill="#000" font-size="14" textLength="70.506">foto/video</text></g><!--entity UC3--><g class="entity" data-qualified-name="System.UC3" id="ent0005" data-source-line="7"><ellipse cx="368.732" cy="347.001" rx="81.092" ry="25.281" fill="#F1F1F1" style="stroke:#181818;stroke-width:0.5;"/><text x="319.951" y="342.399" fill="#000" font-size="14" textLength="97.563">Memverifikasi</text><text x="311.614" y="358.696" fill="#000" font-size="14" textLength="114.235">laporan ReportIt</text></g><!--entity UC4--><g class="entity" data-qualified-name="System.UC4" id="ent0006" data-source-line="8"><ellipse cx="368.731" cy="543.002" rx="81.121" ry="31.742" fill="#F1F1F1" style="stroke:#181818;stroke-width:0.5;"/><text x="319.69" y="533.426" fill="#000" font-size="14" textLength="98.082">Melihat daftar</text><text x="302.289" y="549.723" fill="#000" font-size="14" textLength="132.884">lokasi pencemaran</text><text x="338.595" y="566.02" fill="#000" font-size="14" textLength="60.272">(CleanIt)</text></g><!--entity UC5--><g class="entity" data-qualified-name="System.UC5" id="ent0007" data-source-line="9"><ellipse cx="368.728" cy="442.001" rx="86.928" ry="34.351" fill="#F1F1F1" style="stroke:#181818;stroke-width:0.5;"/><text x="303.288" y="435.168" fill="#000" font-size="14" textLength="130.881">Mengirimkan bukti</text><text x="325.002" y="451.465" fill="#000" font-size="14" textLength="91.902">pembersihan</text><text x="338.592" y="467.762" fill="#000" font-size="14" textLength="60.272">(CleanIt)</text></g><!--entity UC6--><g class="entity" data-qualified-name="System.UC6" id="ent0008" data-source-line="10"><ellipse cx="368.733" cy="155.999" rx="87.353" ry="30.589" fill="#F1F1F1" style="stroke:#181818;stroke-width:0.5;"/><text x="319.952" y="146.288" fill="#000" font-size="14" textLength="97.563">Memverifikasi</text><text x="293.993" y="162.585" fill="#000" font-size="14" textLength="149.481">laporan pembersihan</text><text x="344.059" y="178.882" fill="#000" font-size="14" textLength="49.349">CleanIt</text></g><!--entity UC7--><g class="entity" data-qualified-name="System.UC7" id="ent0009" data-source-line="11"><ellipse cx="368.729" cy="635.002" rx="86.199" ry="25.392" fill="#F1F1F1" style="stroke:#181818;stroke-width:0.5;"/><text x="308.176" y="632.443" fill="#000" font-size="14" textLength="121.105">Menukarkan poin</text><text x="315.627" y="648.74" fill="#000" font-size="14" textLength="106.203">dengan reward</text></g><!--entity A1--><g class="entity" data-qualified-name="A1" id="ent0001" data-source-line="2"><ellipse cx="46.664" cy="471.35" rx="8" ry="8" fill="#F1F1F1" style="stroke:#181818;stroke-width:0.5;"/><path d="M46.664,479.35 L46.664,506.35 M33.664,487.35 L59.664,487.35 M46.664,506.35 L33.664,521.35 M46.664,506.35 L59.664,521.35" style="stroke:#181818;stroke-width:0.5;" fill="none"/><text x="6" y="535.845" fill="#000" font-size="14" textLength="81.327">Masyarakat</text></g><!--entity A2--><g class="entity" data-qualified-name="A2" id="ent0010" data-source-line="13"><ellipse cx="617.453" cy="222.35" rx="8" ry="8" fill="#F1F1F1" style="stroke:#181818;stroke-width:0.5;"/><path d="M617.453,230.35 L617.453,257.35 M604.453,238.35 L630.453,238.35 M617.453,257.35 L604.453,272.35 M617.453,257.35 L630.453,272.35" style="stroke:#181818;stroke-width:0.5;" fill="none"/><text x="586.12" y="286.845" fill="#000" font-size="14" textLength="62.665">Operator</text></g><!--link A1 to UC1--><g class="link" data-entity-1="ent0001" data-entity-2="ent0003" id="lnk11" data-source-line="14" data-link-type="association"><path d="M79.82,462.68 C117.57,419.58 183.78,349.66 252.33,304 C267.86,293.65 285.9,284.64 303.02,277.22" style="stroke:#181818;stroke-width:1;" fill="none" id="A1-UC1"/></g><!--link A1 to UC4--><g class="link" data-entity-1="ent0001" data-entity-2="ent0006" id="lnk12" data-source-line="15" data-link-type="association"><path d="M87.55,506.23 C138.41,512.91 227.42,524.59 291.48,533" style="stroke:#181818;stroke-width:1;" fill="none" id="A1-UC4"/></g><!--link A1 to UC5--><g class="link" data-entity-1="ent0001" data-entity-2="ent0007" id="lnk13" data-source-line="16" data-link-type="association"><path d="M87.73,491.4 C97.4,489.19 107.72,486.93 117.33,485 C173.98,473.64 238.22,462.65 287.45,454.62" style="stroke:#181818;stroke-width:1;" fill="none" id="A1-UC5"/></g><!--link A1 to UC7--><g class="link" data-entity-1="ent0001" data-entity-2="ent0009" id="lnk14" data-source-line="17" data-link-type="association"><path d="M87.73,519.7 C128.77,538.63 194.54,568.41 252.33,592 C271.92,600 293.62,608.24 312.86,615.34" style="stroke:#181818;stroke-width:1;" fill="none" id="A1-UC7"/></g><!--link UC3 to A2--><g class="link" data-entity-1="ent0005" data-entity-2="ent0010" id="lnk16" data-source-line="18" data-link-type="association"><path d="M422.37,327.64 C442.09,320.32 464.67,311.86 485.12,304 C519.69,290.72 559.17,275.01 585.74,264.36" style="stroke:#181818;stroke-width:1;" fill="none" id="UC3-A2"/></g><!--link A2 to UC6--><g class="link" data-entity-1="ent0010" data-entity-2="ent0008" id="lnk17" data-source-line="19" data-link-type="association"><path d="M585.81,240.08 C546.54,224.8 477.65,197.99 428.2,178.75" style="stroke:#181818;stroke-width:1;" fill="none" id="A2-UC6"/></g><!--link UC1 to UC2--><g class="link" data-entity-1="ent0003" data-entity-2="ent0004" id="lnk18" data-source-line="20" data-link-type="dependency"><path d="M290.8,236.14 C239.34,219.96 184.9,191.76 205.48,147.5 C222.7,110.44 259.235,91.489 295.995,80.359" style="stroke:#181818;stroke-width:1;stroke-dasharray:7,7;" fill="none" id="UC1-to-UC2"/><polygon points="300.78,78.91,291.007,77.69,295.995,80.359,293.325,85.346,300.78,78.91" fill="#181818" style="stroke:#181818;stroke-width:1;stroke-linejoin:miter;stroke-miterlimit:10;"/><text x="180.33" y="160.567" fill="#000" font-size="13" textLength="63.007">«include»</text></g><!--link UC5 to UC2--><g class="link" data-entity-1="ent0007" data-entity-2="ent0004" id="lnk19" data-source-line="21" data-link-type="dependency"><path d="M298.7,421.27 C281.83,413.62 265.03,403.42 252.33,390 C212.26,347.67 216.06,324.82 205.48,267.5 C193.91,204.86 215.06,146.35 252.33,108 C265.5,94.44 278.651,86.893 296.441,80.663" style="stroke:#181818;stroke-width:1;stroke-dasharray:7,7;" fill="none" id="UC5-to-UC2"/><polygon points="301.16,79.01,291.344,78.209,296.441,80.663,293.988,85.76,301.16,79.01" fill="#181818" style="stroke:#181818;stroke-width:1;stroke-linejoin:miter;stroke-miterlimit:10;"/><text x="180.33" y="263.567" fill="#000" font-size="13" textLength="63.007">«include»</text></g><?plantuml-src XP51Qm8n48Nl-HM39tlO5hLM4174KmzIQEbjBxERMGsRdIn9Lf7I_zva6wiBGcyppFlclKmqLHwy0Qls1mzIMIgzCYomzCR2SeVkZ1Phz4j01vk9Y0BalIRuE3jF3Nm9qJagqH6CTjGK7NhGs1gBd7DBN58JDZ2CQyEEsfpVAGpzgtyOnPMVsyajptji2gMXw6glSgwCDqz79SaayNHWTYIhAbMZ2zBa2PVr2PZT0beTGZg9bKSR21D9k6RCURpLX7pDzZpCfgngwk2HqWMqASYwiFKEE_ytwW1FT89V1iPTZJRwjaO5fOnNOh1qGYkJVY6-Bt_srfB5KFt-s5Hi9f19S-8iwuyTswn_sgMQ_rKBiPb2rhLzC-kRh0yJG7XSn_l34bOhnQNk9AtNOJ2_E_W1?></g></svg>